<mxfile host="app.diagrams.net" modified="2024-07-01T04:15:40.159Z" agent="Mozilla/5.0 (Windows NT 10.0; Win64; x64) AppleWebKit/537.36 (KHTML, like Gecko) Chrome/126.0.0.0 Safari/537.36" etag="zLxFWfJ_Kl9rPWUGgt8w" version="24.5.4" type="device">
  <diagram name="Page-1" id="SBe-LvYYrWNoW0tWm7Ht">
    <mxGraphModel dx="1434" dy="818" grid="1" gridSize="10" guides="1" tooltips="1" connect="1" arrows="1" fold="1" page="1" pageScale="1" pageWidth="850" pageHeight="1100" math="0" shadow="0">
      <root>
        <mxCell id="0" />
        <mxCell id="1" parent="0" />
        <mxCell id="3SFu8eQVPitq_wIxSGpF-16" value="" style="rounded=0;whiteSpace=wrap;html=1;" vertex="1" parent="1">
          <mxGeometry x="20" y="50" width="790" height="820" as="geometry" />
        </mxCell>
        <mxCell id="3SFu8eQVPitq_wIxSGpF-14" value="" style="rounded=0;whiteSpace=wrap;html=1;" vertex="1" parent="1">
          <mxGeometry x="40" y="110" width="740" height="740" as="geometry" />
        </mxCell>
        <mxCell id="3SFu8eQVPitq_wIxSGpF-12" value="" style="rounded=0;whiteSpace=wrap;html=1;dashed=1;fillColor=#dae8fc;strokeColor=#6c8ebf;" vertex="1" parent="1">
          <mxGeometry x="90" y="168" width="640" height="640" as="geometry" />
        </mxCell>
        <mxCell id="3SFu8eQVPitq_wIxSGpF-4" style="edgeStyle=orthogonalEdgeStyle;rounded=0;orthogonalLoop=1;jettySize=auto;html=1;" edge="1" parent="1" source="3SFu8eQVPitq_wIxSGpF-1" target="3SFu8eQVPitq_wIxSGpF-3">
          <mxGeometry relative="1" as="geometry" />
        </mxCell>
        <mxCell id="3SFu8eQVPitq_wIxSGpF-1" value="Azure Blob Storage" style="verticalLabelPosition=bottom;html=1;verticalAlign=top;align=center;strokeColor=none;fillColor=#00BEF2;shape=mxgraph.azure.storage_blob;" vertex="1" parent="1">
          <mxGeometry x="510" y="227.5" width="50" height="45" as="geometry" />
        </mxCell>
        <mxCell id="3SFu8eQVPitq_wIxSGpF-7" style="edgeStyle=orthogonalEdgeStyle;rounded=0;orthogonalLoop=1;jettySize=auto;html=1;" edge="1" parent="1" source="3SFu8eQVPitq_wIxSGpF-2" target="3SFu8eQVPitq_wIxSGpF-6">
          <mxGeometry relative="1" as="geometry" />
        </mxCell>
        <mxCell id="3SFu8eQVPitq_wIxSGpF-2" value="Event Grid Topic" style="image;aspect=fixed;html=1;points=[];align=center;fontSize=12;image=img/lib/azure2/integration/Event_Grid_Topics.svg;" vertex="1" parent="1">
          <mxGeometry x="219" y="360" width="67" height="60" as="geometry" />
        </mxCell>
        <mxCell id="3SFu8eQVPitq_wIxSGpF-3" value="Azure Function" style="image;aspect=fixed;html=1;points=[];align=center;fontSize=12;image=img/lib/azure2/compute/Function_Apps.svg;" vertex="1" parent="1">
          <mxGeometry x="219" y="220" width="68" height="60" as="geometry" />
        </mxCell>
        <mxCell id="3SFu8eQVPitq_wIxSGpF-5" style="edgeStyle=orthogonalEdgeStyle;rounded=0;orthogonalLoop=1;jettySize=auto;html=1;entryX=0.507;entryY=-0.033;entryDx=0;entryDy=0;entryPerimeter=0;" edge="1" parent="1" source="3SFu8eQVPitq_wIxSGpF-3" target="3SFu8eQVPitq_wIxSGpF-2">
          <mxGeometry relative="1" as="geometry" />
        </mxCell>
        <mxCell id="3SFu8eQVPitq_wIxSGpF-9" style="edgeStyle=orthogonalEdgeStyle;rounded=0;orthogonalLoop=1;jettySize=auto;html=1;" edge="1" parent="1" source="3SFu8eQVPitq_wIxSGpF-6">
          <mxGeometry relative="1" as="geometry">
            <mxPoint x="510" y="570" as="targetPoint" />
          </mxGeometry>
        </mxCell>
        <mxCell id="3SFu8eQVPitq_wIxSGpF-6" value="Azure Function" style="image;aspect=fixed;html=1;points=[];align=center;fontSize=12;image=img/lib/azure2/compute/Function_Apps.svg;" vertex="1" parent="1">
          <mxGeometry x="219" y="540" width="68" height="60" as="geometry" />
        </mxCell>
        <mxCell id="3SFu8eQVPitq_wIxSGpF-8" value="Azure Postgresql" style="image;aspect=fixed;html=1;points=[];align=center;fontSize=12;image=img/lib/azure2/databases/Azure_Database_PostgreSQL_Server.svg;" vertex="1" parent="1">
          <mxGeometry x="512" y="530" width="48" height="64" as="geometry" />
        </mxCell>
        <mxCell id="3SFu8eQVPitq_wIxSGpF-11" style="edgeStyle=orthogonalEdgeStyle;rounded=0;orthogonalLoop=1;jettySize=auto;html=1;" edge="1" parent="1" source="3SFu8eQVPitq_wIxSGpF-10" target="3SFu8eQVPitq_wIxSGpF-8">
          <mxGeometry relative="1" as="geometry" />
        </mxCell>
        <mxCell id="3SFu8eQVPitq_wIxSGpF-26" style="edgeStyle=orthogonalEdgeStyle;rounded=0;orthogonalLoop=1;jettySize=auto;html=1;" edge="1" parent="1" source="3SFu8eQVPitq_wIxSGpF-10" target="3SFu8eQVPitq_wIxSGpF-25">
          <mxGeometry relative="1" as="geometry" />
        </mxCell>
        <mxCell id="3SFu8eQVPitq_wIxSGpF-10" value="App Service" style="image;aspect=fixed;html=1;points=[];align=center;fontSize=12;image=img/lib/azure2/app_services/App_Services.svg;" vertex="1" parent="1">
          <mxGeometry x="218" y="690" width="68" height="68" as="geometry" />
        </mxCell>
        <mxCell id="3SFu8eQVPitq_wIxSGpF-13" value="Azure Vnet" style="text;html=1;align=center;verticalAlign=middle;resizable=0;points=[];autosize=1;strokeColor=none;fillColor=none;fontStyle=1;fontSize=17;" vertex="1" parent="1">
          <mxGeometry x="475" y="138" width="110" height="30" as="geometry" />
        </mxCell>
        <mxCell id="3SFu8eQVPitq_wIxSGpF-15" value="Azure Resource Group" style="image;sketch=0;aspect=fixed;html=1;points=[];align=center;fontSize=12;image=img/lib/mscae/ResourceGroup.svg;" vertex="1" parent="1">
          <mxGeometry x="190" y="90" width="37.5" height="30" as="geometry" />
        </mxCell>
        <mxCell id="3SFu8eQVPitq_wIxSGpF-17" value="Azure subscription" style="image;aspect=fixed;html=1;points=[];align=center;fontSize=12;image=img/lib/azure2/general/Subscriptions.svg;" vertex="1" parent="1">
          <mxGeometry x="70" y="20" width="31.61" height="51" as="geometry" />
        </mxCell>
        <mxCell id="3SFu8eQVPitq_wIxSGpF-19" style="edgeStyle=orthogonalEdgeStyle;rounded=0;orthogonalLoop=1;jettySize=auto;html=1;" edge="1" parent="1" source="3SFu8eQVPitq_wIxSGpF-18" target="3SFu8eQVPitq_wIxSGpF-10">
          <mxGeometry relative="1" as="geometry">
            <Array as="points">
              <mxPoint x="660" y="730" />
            </Array>
          </mxGeometry>
        </mxCell>
        <mxCell id="3SFu8eQVPitq_wIxSGpF-22" style="edgeStyle=orthogonalEdgeStyle;rounded=0;orthogonalLoop=1;jettySize=auto;html=1;" edge="1" parent="1" source="3SFu8eQVPitq_wIxSGpF-18" target="3SFu8eQVPitq_wIxSGpF-21">
          <mxGeometry relative="1" as="geometry" />
        </mxCell>
        <mxCell id="3SFu8eQVPitq_wIxSGpF-18" value="Azure Monitor" style="image;aspect=fixed;html=1;points=[];align=center;fontSize=12;image=img/lib/azure2/management_governance/Monitor.svg;" vertex="1" parent="1">
          <mxGeometry x="630" y="380" width="64" height="64" as="geometry" />
        </mxCell>
        <mxCell id="3SFu8eQVPitq_wIxSGpF-21" value="Cognitive service" style="image;aspect=fixed;html=1;points=[];align=center;fontSize=12;image=img/lib/azure2/ai_machine_learning/Cognitive_Services.svg;" vertex="1" parent="1">
          <mxGeometry x="360" y="490" width="42.5" height="30" as="geometry" />
        </mxCell>
        <mxCell id="3SFu8eQVPitq_wIxSGpF-24" style="edgeStyle=orthogonalEdgeStyle;rounded=0;orthogonalLoop=1;jettySize=auto;html=1;entryX=0;entryY=0.333;entryDx=0;entryDy=0;entryPerimeter=0;" edge="1" parent="1" source="3SFu8eQVPitq_wIxSGpF-6" target="3SFu8eQVPitq_wIxSGpF-21">
          <mxGeometry relative="1" as="geometry">
            <Array as="points">
              <mxPoint x="280" y="500" />
            </Array>
          </mxGeometry>
        </mxCell>
        <mxCell id="3SFu8eQVPitq_wIxSGpF-25" value="Key vault" style="image;aspect=fixed;html=1;points=[];align=center;fontSize=12;image=img/lib/azure2/security/Key_Vaults.svg;" vertex="1" parent="1">
          <mxGeometry x="110" y="622" width="48" height="48" as="geometry" />
        </mxCell>
        <mxCell id="3SFu8eQVPitq_wIxSGpF-27" style="edgeStyle=orthogonalEdgeStyle;rounded=0;orthogonalLoop=1;jettySize=auto;html=1;entryX=0.521;entryY=0;entryDx=0;entryDy=0;entryPerimeter=0;" edge="1" parent="1" source="3SFu8eQVPitq_wIxSGpF-6" target="3SFu8eQVPitq_wIxSGpF-25">
          <mxGeometry relative="1" as="geometry" />
        </mxCell>
      </root>
    </mxGraphModel>
  </diagram>
</mxfile>
